<?xml version="1.0" standalone="no"?>
<!DOCTYPE svg PUBLIC "-//W3C//DTD SVG 20010904//EN"
 "http://www.w3.org/TR/2001/REC-SVG-20010904/DTD/svg10.dtd">
<svg version="1.0" xmlns="http://www.w3.org/2000/svg"
 width="665.000000pt" height="210.000000pt" viewBox="0 0 665.000000 210.000000"
 preserveAspectRatio="xMidYMid meet">
<metadata>
Created by potrace 1.16, written by Peter Selinger 2001-2019
</metadata>
<g transform="translate(0.000000,210.000000) scale(0.100000,-0.100000)"
fill="#000000" stroke="none">
<path d="M5826 1961 c-5 -7 -66 -11 -179 -11 -127 -1 -179 -4 -197 -14 -17
-10 -30 -11 -42 -5 -12 6 -24 5 -38 -3 -14 -9 -27 -10 -48 -2 -33 12 -239 6
-248 -7 -3 -5 -24 -9 -47 -9 -23 0 -60 -5 -81 -11 -29 -8 -45 -8 -62 2 -25 13
-133 7 -143 -9 -3 -5 -44 -12 -91 -15 -47 -4 -110 -15 -140 -26 -33 -12 -82
-21 -120 -21 -39 0 -72 -6 -83 -15 -14 -10 -54 -14 -150 -14 -94 -1 -139 -5
-160 -16 -30 -15 -72 -18 -442 -32 -100 -3 -186 -12 -209 -20 -21 -7 -77 -13
-125 -13 -67 0 -96 -5 -125 -20 -25 -12 -44 -16 -54 -11 -8 5 -31 5 -51 0 -20
-4 -54 -6 -76 -3 -56 7 -238 -11 -243 -25 -2 -7 -50 -11 -147 -11 -107 0 -150
-4 -171 -15 -19 -10 -58 -15 -109 -15 -78 0 -139 -11 -180 -31 -18 -9 -145 -8
-305 3 -19 1 -75 1 -125 0 -125 -3 -207 2 -297 18 -90 16 -113 7 -103 -40 4
-18 -1 -35 -16 -54 -34 -44 -17 -61 62 -62 87 -2 91 -3 84 -14 -3 -5 -39 -10
-79 -10 -64 0 -76 -3 -100 -25 -14 -13 -26 -35 -26 -49 0 -50 4 -52 100 -48
78 4 90 2 90 -12 0 -16 -14 -19 -115 -20 -28 -1 -40 -5 -40 -16 0 -12 16 -15
75 -17 41 -1 94 -4 117 -8 39 -6 43 -4 43 14 0 12 7 21 15 21 18 0 19 -29 1
-52 -11 -15 -30 -18 -119 -18 -105 0 -107 0 -113 -24 -3 -14 -3 -29 0 -34 9
-15 167 -11 198 4 37 19 88 18 88 -1 0 -15 50 -21 120 -16 17 1 28 -5 35 -21
8 -18 21 -24 60 -29 28 -4 74 -11 104 -18 64 -13 76 -7 85 48 l6 39 147 6 c82
4 175 7 208 9 48 2 60 -1 60 -13 0 -11 -19 -18 -72 -25 -39 -5 -75 -13 -79
-17 -11 -12 -74 -10 -74 2 0 6 -30 10 -70 10 -70 0 -83 -7 -56 -30 19 -15 9
-40 -15 -40 -12 0 -16 -5 -13 -15 4 -11 21 -15 58 -15 38 0 56 -5 68 -19 12
-14 35 -21 85 -26 37 -3 79 -12 93 -19 14 -8 50 -17 80 -21 30 -4 64 -14 75
-21 13 -10 52 -14 125 -14 73 0 112 -4 125 -14 11 -7 40 -15 65 -18 25 -3 61
-12 80 -21 19 -8 64 -17 99 -20 35 -3 67 -10 71 -17 4 -6 38 -15 75 -21 38 -5
76 -16 85 -24 10 -9 37 -15 70 -15 36 0 56 -5 64 -16 8 -10 34 -17 76 -21 38
-3 70 -11 76 -19 7 -8 35 -17 63 -21 28 -3 54 -10 57 -14 3 -5 23 -9 46 -9 23
0 61 -11 90 -25 28 -14 67 -25 89 -25 28 0 39 -4 39 -15 0 -14 25 -19 100 -19
14 0 31 -8 38 -17 8 -11 32 -21 62 -25 28 -4 50 -10 50 -15 0 -4 24 -13 54
-19 30 -6 57 -18 60 -26 7 -19 80 -19 96 1 16 19 50 19 50 0 0 -8 -4 -15 -10
-15 -5 0 -10 -7 -10 -15 0 -19 16 -19 24 0 3 10 19 15 44 15 21 0 47 7 58 15
26 20 84 20 84 0 0 -9 -9 -15 -25 -15 -16 0 -25 -6 -25 -15 0 -20 59 -20 66 0
7 18 74 21 91 4 5 -5 25 -18 44 -27 19 -9 38 -27 44 -39 15 -35 75 -46 75 -13
0 13 -7 20 -20 20 -23 0 -27 18 -6 26 20 8 76 -26 76 -46 0 -10 3 -11 8 -4 4
6 32 14 64 17 50 5 57 3 61 -14 6 -21 43 -26 50 -6 3 9 9 9 26 0 27 -16 48
-16 54 0 2 6 8 8 13 4 5 -4 4 -11 -2 -15 -6 -4 -13 -15 -17 -24 -3 -10 -16
-18 -27 -18 -11 0 -20 -7 -20 -15 0 -21 93 -21 114 0 8 8 22 15 30 15 11 0 16
9 16 26 0 25 1 26 53 20 28 -4 75 -9 104 -12 29 -3 57 -12 64 -20 6 -8 24 -14
40 -14 16 0 38 -9 49 -20 13 -13 33 -20 59 -20 26 0 49 -8 68 -23 28 -22 191
-68 296 -82 38 -5 47 -3 47 9 0 9 -12 16 -32 18 -29 3 -34 7 -38 38 -4 25 -11
36 -25 38 -51 7 -65 13 -65 27 0 12 -14 15 -65 15 -51 0 -65 3 -65 15 0 17 28
20 143 15 61 -2 67 0 67 18 0 15 -9 21 -37 27 -21 4 -51 14 -68 23 -16 9 -50
18 -74 21 -62 8 -67 31 -7 31 31 0 46 4 46 13 0 18 137 18 144 0 7 -18 86 -18
86 0 0 8 -11 19 -25 25 -30 14 -31 22 -4 56 16 20 29 26 61 26 47 0 49 23 2
28 -16 2 -33 10 -37 18 -11 20 -106 19 -113 -1 -4 -9 -19 -15 -39 -15 -20 0
-35 6 -39 15 -4 12 4 15 39 15 37 0 45 3 45 19 0 26 -20 31 -71 19 -114 -26
-142 -27 -201 -7 -32 10 -84 19 -116 19 -48 0 -62 4 -73 20 -13 19 -20 19
-114 11 -78 -7 -103 -6 -114 4 -25 24 -2 33 109 40 61 4 113 11 116 16 9 15
71 10 84 -7 11 -13 36 -15 147 -12 117 3 136 1 144 -14 5 -9 28 -19 52 -23 23
-3 66 -11 94 -17 47 -10 55 -9 73 7 32 29 25 45 -20 45 -22 0 -40 5 -40 10 0
6 -11 15 -25 20 -14 5 -25 16 -25 25 0 19 61 21 90 3 15 -10 22 -10 32 0 6 6
27 12 44 12 38 0 51 14 34 35 -9 11 -33 15 -82 15 -45 0 -74 5 -83 14 -16 15
-198 31 -243 21 -21 -4 -36 0 -57 17 -28 21 -35 22 -319 24 -160 2 -313 3
-339 3 -29 1 -46 5 -42 11 4 6 134 10 358 10 194 0 391 5 439 10 65 8 93 7
107 -2 15 -9 26 -7 60 10 37 19 49 21 129 13 79 -7 186 -2 195 10 2 2 16 30
30 61 56 119 51 121 -273 129 -140 4 -286 11 -325 17 -57 8 -73 8 -86 -4 -21
-18 -58 -18 -65 1 -4 8 -16 15 -28 15 -11 0 -38 6 -60 14 l-39 13 59 8 c85 11
536 6 551 -7 12 -10 46 -7 106 8 20 4 33 1 47 -11 14 -13 27 -15 47 -10 15 3
45 6 66 6 41 -2 46 7 19 32 -21 19 -157 49 -189 41 -13 -4 -33 0 -46 8 -15 10
-64 17 -150 21 -71 4 -136 11 -145 17 -12 7 54 9 208 6 325 -6 342 -6 378 7
20 7 32 18 32 29 0 10 -4 18 -10 18 -21 0 -9 18 20 30 30 13 53 40 62 76 9 34
-6 47 -53 46 -24 0 -60 4 -80 9 -32 8 -36 12 -31 34 3 18 0 25 -12 25 -9 0
-16 7 -16 15 0 10 10 15 29 15 16 0 34 -7 41 -15 15 -18 50 -20 50 -2 0 7 13
18 29 24 28 10 29 13 23 59 -2 27 -8 51 -12 54 -3 3 -9 12 -12 21 -8 20 -55
28 -129 21 -43 -3 -63 0 -80 12 -13 9 -36 16 -50 16 -33 0 -59 9 -59 20 0 5
16 14 35 21 29 11 44 25 33 30 -2 1 -55 5 -118 9 -63 5 -129 11 -146 15 -19 4
-34 3 -38 -4z m366 -352 c15 -6 28 -15 28 -19 0 -13 -96 -21 -208 -17 -77 3
-105 0 -113 -10 -14 -16 -144 -19 -134 -3 3 6 26 10 51 10 30 0 46 5 50 15 4
9 19 15 38 16 17 0 39 3 48 7 31 13 211 13 240 1z m-3879 -39 c26 0 47 -4 47
-9 0 -13 -41 -21 -133 -25 -43 -2 -84 -9 -92 -16 -8 -7 -24 -9 -36 -5 -12 4
-24 3 -28 -3 -3 -6 -54 -12 -114 -14 -94 -3 -107 -1 -107 13 0 17 52 25 175
27 23 1 44 7 50 16 11 14 121 27 170 19 11 -1 41 -3 68 -3z m193 -547 c54 -25
57 -28 34 -34 -38 -11 -85 -10 -96 1 -12 12 -154 30 -241 30 -58 0 -73 6 -56
23 3 4 73 7 153 7 139 0 151 -2 206 -27z m891 -109 c15 -9 53 -14 113 -14 73
0 90 -3 90 -15 0 -12 -18 -15 -99 -15 -75 0 -103 -4 -115 -15 -21 -21 -34 -19
-38 7 -4 27 -44 37 -159 37 -53 1 -80 5 -88 15 -10 12 -8 15 11 19 47 10 263
-5 285 -19z"/>
<path d="M322 1788 c-6 -6 -52 -13 -104 -15 -100 -4 -133 -18 -109 -47 10 -12
9 -21 -4 -44 -16 -26 -16 -31 -1 -60 17 -33 9 -76 -15 -84 -8 -3 -11 -27 -10
-76 2 -57 -1 -73 -13 -78 -18 -7 -22 -34 -6 -34 6 0 10 -7 10 -15 0 -8 4 -15
8 -15 5 0 17 -6 27 -14 19 -14 19 -15 1 -35 -19 -21 -19 -21 12 -33 33 -13 44
-38 17 -38 -8 0 -15 -7 -15 -15 0 -8 7 -15 15 -15 8 0 33 -18 55 -40 44 -44
59 -48 100 -23 24 14 35 15 68 5 46 -14 162 -16 162 -3 0 5 -22 11 -49 15 -29
4 -51 12 -55 21 -3 8 -12 15 -21 15 -8 0 -15 9 -15 20 0 18 7 20 56 20 48 0
59 4 75 24 19 24 24 25 135 24 89 0 118 3 132 15 19 17 89 29 176 29 68 0 99
22 94 66 l-3 26 -119 3 c-66 2 -124 7 -129 12 -15 15 24 21 148 24 l110 2 0
34 c0 24 5 36 20 41 11 5 27 18 35 30 8 13 23 31 34 41 29 28 14 49 -37 49
-27 0 -49 6 -57 15 -9 11 -32 15 -79 15 -37 0 -78 6 -93 14 -14 8 -55 17 -90
21 -34 4 -72 13 -83 19 -11 7 -38 16 -59 20 -21 4 -45 13 -52 21 -7 7 -42 16
-76 20 -35 4 -72 14 -83 21 -24 17 -97 18 -113 2z"/>
</g>
</svg>
