<?xml version="1.0" standalone="no"?>
<!DOCTYPE svg PUBLIC "-//W3C//DTD SVG 20010904//EN"
 "http://www.w3.org/TR/2001/REC-SVG-20010904/DTD/svg10.dtd">
<svg version="1.0" xmlns="http://www.w3.org/2000/svg"
 width="1476.000000pt" height="1250.000000pt" viewBox="0 0 1476.000000 1250.000000"
 preserveAspectRatio="xMidYMid meet">
<metadata>
Created by potrace 1.16, written by Peter Selinger 2001-2019
</metadata>
<g transform="translate(0.000000,1250.000000) scale(0.100000,-0.100000)"
fill="#000000" stroke="none">
<path d="M1744 11141 c-352 -95 -561 -432 -488 -789 25 -123 82 -229 172 -321
51 -51 891 -709 2460 -1926 1310 -1016 2382 -1851 2382 -1855 0 -4 -1072 -839
-2382 -1855 -1569 -1217 -2409 -1875 -2460 -1926 -364 -368 -171 -1001 339
-1115 159 -35 360 -6 486 70 29 18 1190 915 2582 1996 1392 1080 2537 1964
2545 1964 8 0 1152 -882 2541 -1961 1389 -1078 2546 -1973 2570 -1988 24 -16
79 -42 124 -59 77 -29 86 -31 230 -30 143 0 154 1 231 31 265 101 429 322 441
598 9 185 -50 354 -168 479 -38 41 -938 746 -2459 1927 -1320 1024 -2400 1866
-2400 1869 0 3 1080 845 2400 1869 1518 1179 2422 1887 2459 1927 233 249 225
665 -17 913 -72 73 -152 125 -256 164 -77 30 -88 31 -231 31 -144 1 -153 -1
-230 -30 -45 -17 -100 -43 -124 -59 -24 -15 -1180 -909 -2570 -1988 -1389
-1079 -2533 -1961 -2541 -1961 -8 0 -1155 885 -2549 1967 -1393 1082 -2553
1979 -2577 1993 -94 55 -179 77 -314 81 -100 2 -139 -1 -196 -16z"/>
<path d="M4471 10323 l0 -838 222 -171 222 -172 3 784 2 784 2460 0 2460 0 2
-784 3 -785 222 172 222 172 1 838 0 837 -2910 0 -2910 0 1 -837z"/>
<path d="M5590 9595 l0 -225 1120 0 1120 0 0 225 0 225 -1120 0 -1120 0 0
-225z"/>
<path d="M8391 9798 c-80 -39 -128 -131 -118 -226 8 -79 48 -139 116 -174 l53
-28 279 0 c302 0 314 2 377 55 99 83 101 246 5 337 -58 55 -77 58 -385 58
-270 0 -285 -1 -327 -22z"/>
<path d="M5771 8483 c0 -5 130 -108 289 -230 l289 -223 740 0 741 0 0 230 0
230 -1030 0 c-566 0 -1030 -3 -1029 -7z"/>
<path d="M8438 8476 c-162 -44 -222 -244 -111 -367 42 -46 88 -73 106 -62 58
35 546 426 542 434 -9 14 -480 10 -537 -5z"/>
<path d="M4470 6250 c0 -814 3 -1270 10 -1268 5 2 106 77 224 168 l215 165 0
935 0 935 -215 165 c-118 91 -219 167 -224 168 -7 2 -10 -454 -10 -1268z"/>
<path d="M10060 7352 l-215 -167 0 -935 0 -934 215 -168 c118 -92 218 -168
223 -168 4 0 7 572 7 1270 0 699 -3 1270 -7 1270 -5 -1 -105 -76 -223 -168z"/>
<path d="M6058 4247 c-158 -122 -287 -225 -287 -229 -1 -5 463 -8 1029 -8
l1030 0 0 230 0 230 -742 -1 -743 0 -287 -222z"/>
<path d="M8385 4442 c-105 -64 -142 -188 -91 -298 28 -59 75 -100 142 -120 55
-16 529 -21 539 -5 5 9 -519 426 -549 437 -6 2 -25 -4 -41 -14z"/>
<path d="M4693 3186 l-222 -171 0 -837 -1 -838 2910 0 2910 0 0 838 -1 837
-222 172 -222 172 -3 -785 -2 -784 -2460 0 -2460 0 -2 784 -3 784 -222 -172z"/>
<path d="M5590 2905 l0 -225 1120 0 1120 0 0 225 0 225 -1120 0 -1120 0 0
-225z"/>
<path d="M8405 3111 c-81 -37 -125 -102 -132 -196 -4 -52 -1 -67 24 -115 18
-34 45 -66 72 -85 l43 -30 299 -3 c326 -3 328 -3 392 57 96 88 93 253 -5 336
-63 53 -75 55 -375 55 -248 0 -282 -2 -318 -19z"/>
</g>
</svg>
